<?xml version="1.0" encoding="UTF-8" standalone="no"?>
<!-- Created with Inkscape (http://www.inkscape.org/) -->

<svg
   width="210mm"
   height="297mm"
   viewBox="0 0 210 297"
   version="1.1"
   id="svg1"
   xml:space="preserve"
   inkscape:version="1.3 (0e150ed6c4, 2023-07-21)"
   sodipodi:docname="M9221B.svg"
   xmlns:inkscape="http://www.inkscape.org/namespaces/inkscape"
   xmlns:sodipodi="http://sodipodi.sourceforge.net/DTD/sodipodi-0.dtd"
   xmlns="http://www.w3.org/2000/svg"
   xmlns:svg="http://www.w3.org/2000/svg"><sodipodi:namedview
     id="namedview1"
     pagecolor="#ffffff"
     bordercolor="#eeeeee"
     borderopacity="1"
     inkscape:showpageshadow="0"
     inkscape:pageopacity="0"
     inkscape:pagecheckerboard="0"
     inkscape:deskcolor="#505050"
     inkscape:document-units="mm"
     showgrid="false"
     shape-rendering="crispEdges"
     inkscape:clip-to-page="false"
     inkscape:zoom="4.2083894"
     inkscape:cx="334.21337"
     inkscape:cy="673.06034"
     inkscape:window-width="1825"
     inkscape:window-height="1361"
     inkscape:window-x="0"
     inkscape:window-y="0"
     inkscape:window-maximized="0"
     inkscape:current-layer="g3" /><defs
     id="defs1"><inkscape:path-effect
       effect="bspline"
       id="path-effect32"
       is_visible="true"
       lpeversion="1.3"
       weight="33.333333"
       steps="2"
       helper_size="0"
       apply_no_weight="true"
       apply_with_weight="true"
       only_selected="false"
       uniform="false" /><linearGradient
       id="swatch32"
       inkscape:swatch="solid"><stop
         style="stop-color:#00ff19;stop-opacity:1;"
         offset="0"
         id="stop32" /></linearGradient><inkscape:path-effect
       effect="bspline"
       id="path-effect27"
       is_visible="true"
       lpeversion="1.3"
       weight="33.333333"
       steps="2"
       helper_size="0"
       apply_no_weight="true"
       apply_with_weight="true"
       only_selected="false"
       uniform="false" /><inkscape:path-effect
       effect="bspline"
       id="path-effect26"
       is_visible="true"
       lpeversion="1.3"
       weight="33.333333"
       steps="2"
       helper_size="0"
       apply_no_weight="true"
       apply_with_weight="true"
       only_selected="false"
       uniform="false" /><filter
       id="fx0"
       x="-10%"
       y="-10%"
       width="120%"
       height="120%"
       filterUnits="userSpaceOnUse"
       primitiveUnits="userSpaceOnUse"><feComponentTransfer
         color-interpolation-filters="sRGB"
         id="feComponentTransfer1"><feFuncR
           type="discrete"
           tableValues="0 0"
           id="feFuncR1" /><feFuncG
           type="discrete"
           tableValues="0 0"
           id="feFuncG1" /><feFuncB
           type="discrete"
           tableValues="0 0"
           id="feFuncB1" /><feFuncA
           type="linear"
           slope="0.34902"
           intercept="0"
           id="feFuncA1" /></feComponentTransfer><feGaussianBlur
         stdDeviation="1.39983 1.39983"
         id="feGaussianBlur1" /></filter><filter
       id="fx1"
       x="-10%"
       y="-10%"
       width="120%"
       height="120%"
       filterUnits="userSpaceOnUse"
       primitiveUnits="userSpaceOnUse"><feComponentTransfer
         color-interpolation-filters="sRGB"
         id="feComponentTransfer2"><feFuncR
           type="discrete"
           tableValues="0 0"
           id="feFuncR2" /><feFuncG
           type="discrete"
           tableValues="0 0"
           id="feFuncG2" /><feFuncB
           type="discrete"
           tableValues="0 0"
           id="feFuncB2" /><feFuncA
           type="linear"
           slope="0.34902"
           intercept="0"
           id="feFuncA2" /></feComponentTransfer><feGaussianBlur
         stdDeviation="1.39983 1.39983"
         id="feGaussianBlur2" /></filter><filter
       id="fx2"
       x="-10%"
       y="-10%"
       width="120%"
       height="120%"
       filterUnits="userSpaceOnUse"
       primitiveUnits="userSpaceOnUse"><feComponentTransfer
         color-interpolation-filters="sRGB"
         id="feComponentTransfer3"><feFuncR
           type="discrete"
           tableValues="0 0"
           id="feFuncR3" /><feFuncG
           type="discrete"
           tableValues="0 0"
           id="feFuncG3" /><feFuncB
           type="discrete"
           tableValues="0 0"
           id="feFuncB3" /><feFuncA
           type="linear"
           slope="0.34902"
           intercept="0"
           id="feFuncA3" /></feComponentTransfer><feGaussianBlur
         stdDeviation="1.39983 1.39983"
         id="feGaussianBlur3" /></filter><filter
       id="fx3"
       x="-10%"
       y="-10%"
       width="120%"
       height="120%"
       filterUnits="userSpaceOnUse"
       primitiveUnits="userSpaceOnUse"><feComponentTransfer
         color-interpolation-filters="sRGB"
         id="feComponentTransfer4"><feFuncR
           type="discrete"
           tableValues="0 0"
           id="feFuncR4" /><feFuncG
           type="discrete"
           tableValues="0 0"
           id="feFuncG4" /><feFuncB
           type="discrete"
           tableValues="0 0"
           id="feFuncB4" /><feFuncA
           type="linear"
           slope="0.34902"
           intercept="0"
           id="feFuncA4" /></feComponentTransfer><feGaussianBlur
         stdDeviation="1.39983 1.39983"
         id="feGaussianBlur4" /></filter><filter
       id="fx4"
       x="-10%"
       y="-10%"
       width="120%"
       height="120%"
       filterUnits="userSpaceOnUse"
       primitiveUnits="userSpaceOnUse"><feComponentTransfer
         color-interpolation-filters="sRGB"
         id="feComponentTransfer5"><feFuncR
           type="discrete"
           tableValues="0 0"
           id="feFuncR5" /><feFuncG
           type="discrete"
           tableValues="0 0"
           id="feFuncG5" /><feFuncB
           type="discrete"
           tableValues="0 0"
           id="feFuncB5" /><feFuncA
           type="linear"
           slope="0.34902"
           intercept="0"
           id="feFuncA5" /></feComponentTransfer><feGaussianBlur
         stdDeviation="1.39983 1.39983"
         id="feGaussianBlur5" /></filter><filter
       id="fx5"
       x="-10%"
       y="-10%"
       width="120%"
       height="120%"
       filterUnits="userSpaceOnUse"
       primitiveUnits="userSpaceOnUse"><feComponentTransfer
         color-interpolation-filters="sRGB"
         id="feComponentTransfer6"><feFuncR
           type="discrete"
           tableValues="0 0"
           id="feFuncR6" /><feFuncG
           type="discrete"
           tableValues="0 0"
           id="feFuncG6" /><feFuncB
           type="discrete"
           tableValues="0 0"
           id="feFuncB6" /><feFuncA
           type="linear"
           slope="0.34902"
           intercept="0"
           id="feFuncA6" /></feComponentTransfer><feGaussianBlur
         stdDeviation="1.39983 1.39983"
         id="feGaussianBlur6" /></filter><filter
       id="fx6"
       x="-10%"
       y="-10%"
       width="120%"
       height="120%"
       filterUnits="userSpaceOnUse"
       primitiveUnits="userSpaceOnUse"><feComponentTransfer
         color-interpolation-filters="sRGB"
         id="feComponentTransfer7"><feFuncR
           type="discrete"
           tableValues="0 0"
           id="feFuncR7" /><feFuncG
           type="discrete"
           tableValues="0 0"
           id="feFuncG7" /><feFuncB
           type="discrete"
           tableValues="0 0"
           id="feFuncB7" /><feFuncA
           type="linear"
           slope="0.34902"
           intercept="0"
           id="feFuncA7" /></feComponentTransfer><feGaussianBlur
         stdDeviation="1.39983 1.39983"
         id="feGaussianBlur7" /></filter><clipPath
       id="clip7"><rect
         x="41"
         y="12801"
         width="177"
         height="96"
         id="rect7" /></clipPath><clipPath
       id="clip8"><rect
         x="1"
         y="1"
         width="39"
         height="39"
         id="rect8" /></clipPath><clipPath
       id="clip9"><rect
         x="-1"
         y="1"
         width="45"
         height="43"
         id="rect9" /></clipPath><clipPath
       id="clip10"><rect
         x="1"
         y="1"
         width="43"
         height="43"
         id="rect10" /></clipPath><clipPath
       id="clip11"><rect
         x="-1"
         y="1"
         width="75"
         height="57"
         id="rect11" /></clipPath><clipPath
       id="clip12"><rect
         x="1"
         y="1"
         width="85"
         height="65"
         id="rect12" /></clipPath><clipPath
       id="clip13"><path
         d="M106 12808C101.913 12808.3 97.8265 12808.6 94.4931 12809.2 91.1598 12809.9 86.4566 12811.5 86 12812ZM41 12801 218 12801 218 12897 41 12897Z"
         fill-rule="evenodd"
         clip-rule="evenodd"
         id="path12" /></clipPath><clipPath
       id="clip14"><rect
         x="-1"
         y="1"
         width="35"
         height="19"
         id="rect13" /></clipPath><clipPath
       id="clip15"><path
         d="M52.9917 12838.7C51.5123 12841.6 50.033 12844.6 49.3691 12847.4 48.7052 12850.1 48.5753 12854.6 49.0083 12855.3ZM41 12801 218 12801 218 12897 41 12897Z"
         fill-rule="evenodd"
         clip-rule="evenodd"
         id="path13" /></clipPath><clipPath
       id="clip16"><rect
         x="-1"
         y="1"
         width="21"
         height="29"
         id="rect14" /></clipPath></defs><g
     inkscape:label="Layer 1"
     inkscape:groupmode="layer"
     id="layer1"><path
       style="display:inline;fill:none;fill-opacity:1;stroke:#000000;stroke-width:0.411258;paint-order:fill markers stroke;opacity:1"
       d="m 82.299046,145.80118 c 5.435688,-1.69234 5.271681,-24.60026 0.01287,-26.58914 L 64.29914,118.88859 c -7.082694,1.58855 -7.010284,26.22559 -0.770033,26.70082 z"
       id="path8"
       sodipodi:nodetypes="ccccc" /><path
       style="display:inline;fill:none;fill-opacity:1;stroke:#000000;stroke-width:0.444496;paint-order:fill markers stroke"
       d="m 79.97393,145.71687 c -2.642753,-0.0151 -4.772261,-5.95702 -4.759277,-13.28129 0.01306,-7.32426 2.163574,-13.26346 4.806356,-13.27357"
       id="path7" /><path
       style="display:inline;fill:none;fill-opacity:1;stroke:#000000;stroke-width:0.295583;paint-order:fill markers stroke"
       d="m 81.024037,140.37545 c -1.955198,-0.0106 -3.530681,-3.56055 -3.521075,-7.93833 0.01,-4.37775 1.600676,-7.92766 3.555898,-7.9337"
       id="path7-4" /><path
       style="display:inline;fill:none;fill-opacity:1;stroke:#000000;stroke-width:0.295523;paint-order:fill markers stroke"
       d="m 80.973705,140.3688 c 1.500423,-0.008 2.777231,-2.0997 3.285695,-5.04983 0.154121,-0.89422 0.23765,-1.86732 0.235415,-2.88519 -0.01,-4.37594 -1.600692,-7.92436 -3.555932,-7.9304"
       id="path7-4-8"
       sodipodi:nodetypes="cscc" /><path
       style="display:inline;fill:none;fill-opacity:1;stroke:#000000;stroke-width:0.444496;paint-order:fill markers stroke"
       d="m 66.745364,145.71687 c -2.642753,-0.0151 -4.77226,-5.95702 -4.759276,-13.28129 0.01306,-7.32426 2.163573,-13.26346 4.806365,-13.27357"
       id="path5-4-2-9" /><path
       style="display:inline;fill:none;fill-opacity:1;stroke:#000000;stroke-width:0.444496;paint-order:fill markers stroke"
       d="m 76.628397,145.71687 c -2.642752,-0.0151 -4.77226,-5.95702 -4.759276,-13.28129 0.01306,-7.32426 2.163573,-13.26346 4.806366,-13.27357"
       id="path5-4-2-0" /><path
       style="fill:#f5ff00;fill-opacity:1;stroke:#000000;stroke-width:0.168845;stroke-dasharray:none;paint-order:fill markers stroke"
       d="m 101.02142,158.05854 c -0.55354,-0.1982 -1.221146,-1.04839 -1.605952,-2.04516 -0.696188,-1.80334 -1.019439,-3.87599 -1.012395,-6.49132 0.01301,-4.82185 1.325596,-8.07987 2.845627,-8.45821 0.39622,-0.0986 2.08371,-0.1106 4.07547,-0.029 l 1.39312,0.0571 -0.43695,0.67336 c -0.24033,0.37034 -0.52428,0.89973 -0.631,1.17641 -0.50654,1.31321 -0.87138,3.10748 -1.00275,4.93147 -0.0941,1.30719 -0.0402,3.56731 0.11241,4.71258 0.31171,2.33865 0.95584,4.24726 1.75905,5.21216 l 0.29709,0.35689 -2.78717,-0.009 c -1.53294,-0.005 -2.88589,-0.0442 -3.00655,-0.0874 z"
       id="path9"
       sodipodi:nodetypes="csssscssssscccc" /><g
       clip-path="url(#clip7)"
       transform="matrix(0.26458333,0,0,0.26458333,52.919813,-3314.2723)"
       id="g35"><g
         clip-path="url(#clip8)"
         filter="url(#fx0)"
         transform="translate(75,12856)"
         id="g15"><g
           id="g14"><path
             d="M 24.6988,0.0128521 C 38.7751,-0.43833 50.5449,10.8308 50.9874,25.1831 c 0.009,0.2905 0.0132,0.5812 0.0126,0.8718"
             stroke="#000000"
             stroke-width="4"
             stroke-linejoin="round"
             stroke-miterlimit="10"
             fill="none"
             fill-rule="evenodd"
             transform="matrix(-1,0,0,1,59,8.41504)"
             id="path14" /></g></g><path
         d="M 24.6988,0.0128521 C 38.7751,-0.43833 50.5449,10.8308 50.9874,25.1831 c 0.009,0.2905 0.0132,0.5812 0.0126,0.8718"
         stroke="#000000"
         stroke-width="4"
         stroke-linejoin="round"
         stroke-miterlimit="10"
         fill="none"
         fill-rule="evenodd"
         transform="matrix(-1,0,0,1,134,12862)"
         id="path15" /><path
         d="m 117.667,12803.5 h 48.666 c 6.72,0 12.167,16.8 12.167,37.5 0,20.7 -5.447,37.5 -12.167,37.5 h -48.666 c -6.72,0 -12.167,-16.8 -12.167,-37.5 0,-20.7 5.447,-37.5 12.167,-37.5 z"
         fill="#ffffff"
         fill-rule="evenodd"
         id="path16" /><path
         d="m 166.333,12878.5 c -6.719,0 -12.166,-16.8 -12.166,-37.5 0,-20.7 5.447,-37.5 12.166,-37.5"
         stroke="#000000"
         stroke-linejoin="round"
         stroke-miterlimit="10"
         fill="none"
         fill-rule="evenodd"
         id="path17" /><path
         d="m 117.667,12803.5 h 48.666 c 6.72,0 12.167,16.8 12.167,37.5 0,20.7 -5.447,37.5 -12.167,37.5 h -48.666 c -6.72,0 -12.167,-16.8 -12.167,-37.5 0,-20.7 5.447,-37.5 12.167,-37.5 z"
         stroke="#000000"
         stroke-linejoin="round"
         stroke-miterlimit="10"
         fill="none"
         fill-rule="evenodd"
         id="path18" /><path
         d="M 124.057,12803.5 H 153.5 c -3.254,0 -8.222,16.8 -8.222,37.5 0,20.7 4.968,37.5 8.222,37.5 h -29.443 c -3.254,0 -10.557,-16.5 -10.557,-37.2 0,-20.7 7.303,-37.8 10.557,-37.8 z"
         stroke="#000000"
         stroke-linejoin="round"
         stroke-miterlimit="10"
         fill="#ffff00"
         fill-rule="evenodd"
         id="path19" /><path
         d="m 160.5,12841.5 c 0,-12.2 2.91,-22 6.5,-22 3.59,0 6.5,9.8 6.5,22 0,12.2 -2.91,22 -6.5,22 -3.59,0 -6.5,-9.8 -6.5,-22 z"
         stroke="#000000"
         stroke-linejoin="round"
         stroke-miterlimit="10"
         fill="#ffffff"
         fill-rule="evenodd"
         id="path20" /><g
         clip-path="url(#clip9)"
         filter="url(#fx1)"
         transform="translate(166,12854)"
         id="g22"><g
           id="g21"><path
             d="m 5.5,8.41504 c 16.3195,0 29.7475,12.84596 30.4701,29.14946"
             stroke="#000000"
             stroke-width="4"
             stroke-linejoin="round"
             stroke-miterlimit="10"
             fill="none"
             fill-rule="evenodd"
             id="path21" /></g></g><path
         d="m 171.5,12860 c 16.319,0 29.747,12.8 30.47,29.1"
         stroke="#000000"
         stroke-width="4"
         stroke-linejoin="round"
         stroke-miterlimit="10"
         fill="none"
         fill-rule="evenodd"
         id="path22" /><g
         clip-path="url(#clip10)"
         filter="url(#fx2)"
         transform="translate(156,12853)"
         id="g24"><g
           id="g23"><path
             d="M 6.49996,8.41504 C 22.8279,8.41504 36.2597,21.4847 36.971,38.0645"
             stroke="#000000"
             stroke-width="4"
             stroke-linejoin="round"
             stroke-miterlimit="10"
             fill="none"
             fill-rule="evenodd"
             id="path23" /></g></g><path
         d="m 162.5,12859 c 16.328,0 29.76,13.1 30.471,29.6"
         stroke="#000000"
         stroke-width="4"
         stroke-linejoin="round"
         stroke-miterlimit="10"
         fill="none"
         fill-rule="evenodd"
         id="path24" /><path
         id="rect15"
         style="fill:#00cafa;fill-opacity:1;stroke:#000000;stroke-width:0.202479;stroke-dasharray:none;paint-order:fill markers stroke"
         d="m 119.36418,12809.948 c 7.63526,-14.831 7.63526,-27.78 0.53305,-16.19 -7.10222,11.589 -31.257779,74.947 -24.881436,107.461 l 4.734756,-2.595 c -5.898367,-33.876 11.97837,-73.845 19.61363,-88.676 z"
         sodipodi:nodetypes="zzccz" /></g><path
       style="fill:#00ff19;fill-opacity:1;stroke:none;stroke-width:0.0600001;stroke-dasharray:none;stroke-opacity:1;paint-order:fill markers stroke"
       d="m 77.751682,110.2119 c 3.49636,-3.10161 6.992717,-6.20322 10.489076,-9.30483"
       id="path32"
       inkscape:path-effect="#path-effect32"
       inkscape:original-d="m 77.751682,110.2119 c 3.496361,-3.10161 10.489076,-9.30483 10.489076,-9.30483"
       sodipodi:nodetypes="cc" /><path
       style="fill:none;fill-opacity:1;stroke:#000000;stroke-width:0.0593594;stroke-dasharray:none;stroke-opacity:1;paint-order:fill markers stroke"
       id="path33"
       sodipodi:type="arc"
       sodipodi:cx="76.324722"
       sodipodi:cy="166.32469"
       sodipodi:rx="1.7606928"
       sodipodi:ry="8.6440926"
       sodipodi:start="0"
       sodipodi:end="6.2764905"
       sodipodi:open="true"
       sodipodi:arc-type="arc"
       d="m 78.085415,166.32469 a 1.7606928,8.6440926 0 0 1 -1.757746,8.64408 1.7606928,8.6440926 0 0 1 -1.76363,-8.61514 1.7606928,8.6440926 0 0 1 1.751843,-8.67292 1.7606928,8.6440926 0 0 1 1.769494,8.58611" /><path
       style="fill:none;fill-opacity:1;stroke:#000000;stroke-width:0.0437129;stroke-dasharray:none;stroke-opacity:1;paint-order:fill markers stroke"
       id="path33-2"
       sodipodi:type="arc"
       sodipodi:cx="76.35067"
       sodipodi:cy="166.32469"
       sodipodi:rx="1.2040067"
       sodipodi:ry="6.8551149"
       sodipodi:start="0"
       sodipodi:end="6.2764905"
       sodipodi:open="true"
       sodipodi:arc-type="arc"
       d="m 77.554677,166.32469 a 1.2040067,6.8551149 0 0 1 -1.201992,6.85511 1.2040067,6.8551149 0 0 1 -1.206015,-6.83216 1.2040067,6.8551149 0 0 1 1.197954,-6.87798 1.2040067,6.8551149 0 0 1 1.210026,6.80914" /><path
       id="path33-8"
       style="fill:none;fill-opacity:1;stroke:#000000;stroke-width:0.0593594;stroke-dasharray:none;stroke-opacity:1;paint-order:fill markers stroke"
       d="m 67.854394,157.67844 v 0.0372 a 1.7606928,8.6440926 0 0 0 -1.635559,8.63564 1.7606928,8.6440926 0 0 0 1.635559,8.57829 v 0.0362 h 0.126607 a 1.7606928,8.6440926 0 0 0 0.0016,5.1e-4 1.7606928,8.6440926 0 0 0 0.0015,-5.1e-4 h 5.851839 v -0.009 a 1.7606928,8.6440926 0 0 1 -1.730644,-8.60568 1.7606928,8.6440926 0 0 1 1.730644,-8.66613 v -0.007 h -5.865275 z" /><path
       id="path33-5"
       style="fill:none;fill-opacity:1;stroke:#000000;stroke-width:0.0593539;stroke-dasharray:none;stroke-opacity:1;paint-order:fill markers stroke"
       d="M 65.535018 157.67926 A 1.7603725 8.6440506 0 0 0 63.783704 166.35212 A 1.7603725 8.6440506 0 0 0 65.543803 174.96606 L 65.543803 174.9671 L 65.546903 174.9671 L 76.294568 174.9671 C 76.294568 174.9671 74.534244 174.99849 74.563924 166.32473 C 74.592266 158.04222 76.294568 157.67926 76.294568 157.67926 L 65.543803 157.67926 L 65.543803 157.68185 A 1.7603725 8.6440506 0 0 0 65.535018 157.67926 z " /><path
       style="fill:#ffff1f;fill-opacity:1;stroke:#000000;stroke-width:0.0538856;stroke-dasharray:none;stroke-opacity:1;paint-order:fill markers stroke"
       d="m 255.9727,660.51812 c -1.4794,-1.38196 -2.7879,-4.96604 -3.7374,-10.23696 -3.10692,-17.2474 -1.80612,-43.64955 2.55729,-51.90501 1.29922,-2.45809 0.45832,-2.30489 12.65128,-2.30489 h 10.62146 l -0.71237,0.81134 c -2.8917,3.29346 -5.02559,16.69485 -5.03608,31.62793 -0.0105,14.92674 2.14551,28.56526 5.03608,31.85743 l 0.71237,0.81134 H 267.37291 256.6805 Z"
       id="path34"
       transform="scale(0.26458333)" /><path
       id="path35-7"
       style="opacity:1;fill:none;fill-opacity:1;stroke:#000000;stroke-width:0.0559408;stroke-dasharray:none;stroke-opacity:1;paint-order:fill markers stroke"
       d="m 87.85333,181.316 v 0.002 a 3.9059542,5.1575105 0 0 0 -0.01976,-0.002 3.9059542,5.1575105 0 0 0 -3.886281,5.17443 3.9059542,5.1575105 0 0 0 3.906038,5.13979 v 5.2e-4 h 0.0063 8.805759 v -10.31526 z" /><path
       style="display:inline;opacity:1;fill:#ffffff;fill-opacity:1;stroke:#000000;stroke-width:0.0600001;stroke-dasharray:none;stroke-opacity:1;paint-order:fill markers stroke"
       id="path35"
       sodipodi:type="arc"
       sodipodi:cx="96.663315"
       sodipodi:cy="186.47375"
       sodipodi:rx="4.4952369"
       sodipodi:ry="5.1553764"
       sodipodi:start="0"
       sodipodi:end="6.2764905"
       sodipodi:open="true"
       sodipodi:arc-type="arc"
       d="m 101.15855,186.47375 a 4.4952369,5.1553764 0 0 1 -4.487711,5.15537 4.4952369,5.1553764 0 0 1 -4.502736,-5.13811 4.4952369,5.1553764 0 0 1 4.472641,-5.17257 4.4952369,5.1553764 0 0 1 4.517706,5.1208" /><path
       id="path35-0"
       style="display:inline;fill:#ffffff;fill-opacity:1;stroke:#000000;stroke-width:0.0600001;stroke-dasharray:none;stroke-opacity:1;paint-order:fill markers stroke"
       d="m 90.286182,181.31824 a 4.4952369,5.1553764 0 0 0 -4.472595,5.17281 4.4952369,5.1553764 0 0 0 4.495333,5.13767 v 5.2e-4 h 0.0072 4.482931 v -5.2e-4 a 4.4952369,5.1553764 0 0 1 -4.495333,-5.13767 4.4952369,5.1553764 0 0 1 4.414201,-5.16765 h -4.364591 a 4.4952369,5.1553764 0 0 0 -0.06718,-0.005 z" /><path
       style="fill:none;fill-opacity:1;stroke:#000000;stroke-width:0.0340624;stroke-dasharray:none;stroke-opacity:1;paint-order:fill markers stroke"
       id="path35-8"
       sodipodi:type="arc"
       sodipodi:cx="96.663315"
       sodipodi:cy="186.47375"
       sodipodi:rx="2.5519669"
       sodipodi:ry="2.9267311"
       sodipodi:start="0"
       sodipodi:end="6.2764905"
       sodipodi:open="true"
       sodipodi:arc-type="arc"
       d="m 99.215282,186.47375 a 2.5519669,2.9267311 0 0 1 -2.547696,2.92673 2.5519669,2.9267311 0 0 1 -2.556224,-2.91693 2.5519669,2.9267311 0 0 1 2.539139,-2.93649 2.5519669,2.9267311 0 0 1 2.564724,2.9071" /><path
       style="fill:#ffffff;fill-opacity:1;stroke:#000000;stroke-width:0.0538856;stroke-dasharray:none;stroke-opacity:1;paint-order:fill markers stroke"
       d="m 339.52016,723.88432 c -3.32337,-0.42863 -6.41788,-1.97691 -8.96998,-4.48797 -6.12149,-6.02305 -7.72283,-15.98012 -3.84077,-23.88171 2.28559,-4.6521 5.84003,-7.86326 10.24371,-9.2544 2.06635,-0.65276 2.10968,-0.65536 10.44819,-0.62631 l 6.29694,0.0219 -2.21174,1.08222 c -2.48541,1.21612 -5.15125,3.52762 -6.69731,5.80713 -4.92473,7.26098 -4.92473,17.21394 0,24.47492 1.95015,2.87529 5.82275,5.83203 8.90226,6.7969 0.81784,0.25624 -0.0292,0.29787 -5.81491,0.28577 -3.7247,-0.008 -7.48508,-0.10611 -8.35639,-0.21849 z"
       id="path36"
       transform="scale(0.26458333)" /><path
       style="fill:#f8ff00;fill-opacity:1;stroke:#000000;stroke-width:0.0538856;stroke-dasharray:none;stroke-opacity:1;paint-order:fill markers stroke"
       d="m 339.91626,723.76243 c -0.26138,-0.0515 -1.06335,-0.20858 -1.78215,-0.34912 -4.7745,-0.93353 -9.80493,-5.55633 -11.86345,-10.90211 -3.98223,-10.34146 0.48778,-21.98873 9.89715,-25.78845 2.11348,-0.85347 5.75626,-1.13625 11.9089,-0.92444 l 4.59615,0.15823 -1.4196,0.75848 c -3.62307,1.93577 -6.1106,4.47773 -7.88229,8.05475 -1.84019,3.7153 -2.228,5.45818 -2.228,10.01291 0,4.57585 0.38643,6.29498 2.26954,10.0965 1.00745,2.03381 1.56476,2.8246 3.0276,4.29603 1.92201,1.93329 3.3202,2.9735 5.4464,4.05199 l 1.3365,0.67792 -6.41575,-0.0245 c -3.52867,-0.0135 -6.62962,-0.0667 -6.891,-0.11814 z"
       id="path37"
       transform="scale(0.26458333)" /><g
       transform="matrix(0.26458333,0,0,0.26458333,-119.85744,-3216.6941)"
       id="g3"><path
         d="m 805.76483,12755.495 c -10.31322,0 -18.67458,17.202 -18.67458,38.505 0,21.303 8.36136,38.505 18.67458,38.505 h -41.22959 c -10.31322,0 -18.67458,-17.202 -18.67458,-38.505 0,-21.303 8.36136,-38.505 18.67458,-38.505 z"
         fill="#ffffff"
         fill-rule="evenodd"
         id="path1"
         style="stroke:#000000;stroke-width:0.985008;stroke-opacity:1" /><path
         d="m 821.54041,12764.635 c 7.83391,0 14.18385,12.674 14.18385,28.368 0,15.694 -6.34994,28.368 -14.18385,28.368 -7.83317,0 -14.18386,-12.674 -14.18386,-28.368 0,-15.694 6.35069,-28.368 14.18386,-28.368 z"
         fill="#ffffff"
         fill-rule="evenodd"
         id="path2-2"
         style="fill:none;stroke:#000000;stroke-width:0.737984;stroke-dasharray:none;stroke-opacity:1" /><path
         d="m 821.25,12832.5 c -10.631,0 -19.25,-17.2 -19.25,-38.5 0,-21.3 8.619,-38.5 19.25,-38.5 10.632,0 19.25,17.2 19.25,38.5 0,21.3 -8.618,38.5 -19.25,38.5 h -42.5 c -10.631,0 -19.25,-17.2 -19.25,-38.5 0,-21.3 8.619,-38.5 19.25,-38.5 h 42.5"
         stroke="#000000"
         stroke-linejoin="round"
         stroke-miterlimit="10"
         fill="none"
         fill-rule="evenodd"
         id="path3" /><path
         style="fill:none;stroke:#ffd600;stroke-width:0.237995;stroke-dasharray:none;stroke-opacity:1;paint-order:fill markers stroke"
         d="m 322.84463,673.77922 c -8.23313,-2.63039 -14.72208,-16.5773 -15.58675,-33.50108 -1.07001,-20.94285 6.57494,-39.68325 16.95966,-41.57396 0.87982,-0.16019 5.60291,-0.25671 12.56156,-0.25671 h 11.15161 l -1.40483,0.93811 c -9.79353,6.53987 -15.18479,28.01333 -12.18624,48.53802 1.72235,11.78933 6.61363,22.02592 12.22485,25.58444 l 1.16749,0.7404 -11.74934,-0.0128 c -10.79522,-0.0117 -11.8621,-0.0488 -13.13801,-0.45644 z"
         id="path2"
         transform="translate(453.0045,12157.584)" /><path
         style="fill:#fff800;stroke:#ffd600;stroke-width:0.23811024;stroke-dasharray:none;stroke-opacity:1;paint-order:fill markers stroke;fill-opacity:1"
         d="m 324.15591,673.76732 c -7.96876,-1.15997 -14.92417,-14.20849 -16.44686,-30.8547 -0.37194,-4.06606 -0.17395,-13.23032 0.36,-16.66354 1.71237,-11.01028 5.12707,-19.09601 10.05123,-23.80053 2.45873,-2.34905 4.19618,-3.21827 7.06876,-3.53639 1.17718,-0.13036 6.55209,-0.20756 11.99231,-0.17225 l 9.85897,0.064 -0.80174,0.50753 c -1.38658,0.87775 -3.82174,3.45669 -5.15997,5.46462 -3.9024,5.85533 -6.55639,14.59403 -7.47891,24.62559 -0.40535,4.40779 -0.15996,14.15387 0.45609,18.11449 1.33564,8.58689 3.68562,15.3979 7.13008,20.66536 1.08101,1.65314 3.87889,4.66784 5.02734,5.41693 0.5537,0.36115 -0.13236,0.38631 -10.09888,0.37029 -5.88111,-0.009 -11.2624,-0.10007 -11.95842,-0.20139 z"
         id="path4"
         transform="translate(453.0045,12157.584)" /></g></g></svg>
